#!OML:ASF H:\MichaelJackson\Top Level 1\Subject 1\Session 1\male.ASF
:FULLY-SPECIFIED
:DEGREES
556
root 1.49471 16.3394 2.65207 4.78267 5.96561 -12.3263
lowerback 1.75801 2.20174 4.82781
upperback 0.58873 3.02957 2.0219
thorax -0.239814 1.51778 -0.679904
lowerneck -6.3023 -2.29957 4.09487
upperneck 2.69484 -3.48933 2.10392
head 1.88233 -1.63643 -0.153927
rclavicle 1.32192e-014 3.18055e-015
rhumerus -42.9152 17.9771 -93.6218
rradius 62.4345
rwrist 2.03913
rhand -28.3231 -26.8703
rfingers 7.12502
rthumb -1.69792 303.157
lclavicle 1.32192e-014 3.18055e-015
lhumerus -41.7719 9.46101 75.3033
lradius 30.5426
lwrist -1.98603
lhand -6.33502 6.16055
lfingers 7.12502
lthumb 19.5103 35.2017
rfemur -5.33842 -2.44048 31.6048
rtibia 32.3762
rfoot -29.5143 -1.45304
rtoes -0.301347
lfemur -56.5635 35.6495 -29.2148
ltibia 49.632
lfoot -13.2981 13.8682
ltoes 21.1057
557
root 1.52228 16.3189 2.79741 4.34589 6.28428 -12.1881
lowerback 1.55385 2.24292 4.53442
upperback 0.51774 3.06993 2.01406
thorax -0.211613 1.5376 -0.518824
lowerneck -6.27559 -2.43156 4.05038
upperneck 3.07839 -3.67518 2.1492
head 2.00306 -1.71927 -0.14201
rclavicle -6.16232e-015 2.38542e-015
rhumerus -43.3976 17.3084 -93.2811
rradius 63.1572
rwrist 1.97713
rhand -27.8733 -26.3354
rfingers 7.12502
rthumb -1.26357 303.689
lclavicle -6.16232e-015 2.38542e-015
lhumerus -42.4578 10.504 74.5536
lradius 29.9027
lwrist -2.65259
lhand -6.03395 6.33339
lfingers 7.12502
lthumb 19.7997 35.3449
rfemur -4.40633 -2.85684 31.3905
rtibia 32.5929
rfoot -29.6472 -1.72995
rtoes -1.62071
lfemur -55.7472 35.4414 -28.9468
ltibia 49.8348
lfoot -13.2566 14.107
ltoes 25.7701
558
root 1.55138 16.3003 2.94308 3.90245 6.57567 -11.9793
lowerback 1.35907 2.28764 4.14455
upperback 0.455597 3.11497 1.98625
thorax -0.183781 1.55987 -0.324724
lowerneck -6.23946 -2.55859 4.03144
upperneck 3.44846 -3.85632 2.2027
head 2.11811 -1.79945 -0.131539
rclavicle 4.35338e-014 1.66979e-014
rhumerus -43.9047 16.6055 -92.9155
rradius 63.9211
rwrist 1.86265
rhand -27.5452 -25.8834
rfingers 7.12502
rthumb -0.946658 304.139
lclavicle 4.35338e-014 1.66979e-014
lhumerus -43.1676 11.5117 73.7703
lradius 29.3443
lwrist -3.19449
lhand -5.84095 6.48768
lfingers 7.12502
lthumb 19.9852 35.4799
rfemur -3.65222 -3.33625 31.0781
rtibia 33.1861
rfoot -29.6935 -1.9784
rtoes -3.36714
lfemur -54.7418 35.1844 -28.5992
ltibia 50.1327
lfoot -13.4451 14.0928
ltoes 29.6525
559
root 1.58251 16.2843 3.08874 3.44231 6.85439 -11.7194
lowerback 1.1843 2.32512 3.68392
upperback 0.40759 3.15152 1.94571
thorax -0.156494 1.57804 -0.104586
lowerneck -6.19124 -2.67639 4.03569
upperneck 3.79889 -4.02662 2.26489
head 2.22494 -1.874 -0.121585
rclavicle -8.94531e-015 -3.10104e-014
rhumerus -44.4137 15.8946 -92.529
rradius 64.703
rwrist 1.72296
rhand -27.337 -25.5389
rfingers 7.12502
rthumb -0.745538 304.483
lclavicle -8.94531e-015 -3.10104e-014
lhumerus -43.8979 12.4806 72.9629
lradius 28.857
lwrist -3.58889
lhand -5.79401 6.6162
lfingers 7.12502
lthumb 20.0304 35.6038
rfemur -3.13099 -3.92849 30.6689
rtibia 34.2572
rfoot -29.617 -2.10306
rtoes -5.53558
lfemur -53.5195 34.8493 -28.1498
ltibia 50.4375
lfoot -13.9014 13.9063
ltoes 32.728
560
root 1.61628 16.2719 3.23355 2.96495 7.13387 -11.4378
lowerback 1.03646 2.349 3.19486
upperback 0.372881 3.17206 1.8991
thorax -0.132675 1.58825 0.124627
lowerneck -6.12321 -2.78279 4.06361
upperneck 4.12307 -4.18253 2.33456
head 2.31978 -1.94134 -0.112191
rclavicle 1.87852e-014 -1.82882e-014
rhumerus -44.9096 15.1846 -92.1255
rradius 65.4816
rwrist 1.58748
rhand -27.2413 -25.3087
rfingers 7.12502
rthumb -0.653129 304.713
lclavicle 1.87852e-014 -1.82882e-014
lhumerus -44.6427 13.3967 72.148
lradius 28.4297
lwrist -3.81991
lhand -5.92942 6.71471
lfingers 7.12502
lthumb 19.9002 35.7158
rfemur -2.91497 -4.69946 30.1646
rtibia 35.899
rfoot -29.3363 -1.99044
rtoes -8.07303
lfemur -52.1053 34.4227 -27.6047
ltibia 50.6867
lfoot -14.5977 13.6613
ltoes 35.0047
561
root 1.65306 16.2634 3.37658 2.4669 7.43931 -11.1553
lowerback 0.926123 2.34967 2.70952
upperback 0.353327 3.16424 1.85247
thorax -0.114775 1.58428 0.350888
lowerneck -6.04376 -2.87531 4.11448
upperneck 4.42344 -4.32086 2.40573
head 2.4047 -1.9999 -0.105121
rclavicle 7.65321e-015 -9.54166e-015
rhumerus -45.3718 14.4879 -91.6983
rradius 66.2398
rwrist 1.49699
rhand -27.2344 -25.203
rfingers 7.12502
rthumb -0.646435 304.818
lclavicle 7.65321e-015 -9.54166e-015
lhumerus -45.385 14.246 71.3518
lradius 28.0472
lwrist -3.86661
lhand -6.25419 6.78705
lfingers 7.12502
lthumb 19.588 35.8203
rfemur -3.06907 -5.7142 29.558
rtibia 38.1849
rfoot -28.7389 -1.48705
rtoes -10.7742
lfemur -50.5469 33.897 -26.9964
ltibia 50.8492
lfoot -15.4769 13.4425
ltoes 36.7405
562
root 1.69306 16.2587 3.51657 1.94735 7.78193 -10.8929
lowerback 0.867517 2.32031 2.25642
upperback 0.35064 3.11914 1.81422
thorax -0.1074 1.56163 0.566375
lowerneck -5.97666 -2.94975 4.1821
upperneck 4.71525 -4.4367 2.4682
head 2.489 -2.04706 -0.102996
rclavicle -1.77912e-014 2.70347e-014
rhumerus -45.7825 13.8231 -91.2414
rradius 66.9684
rwrist 1.48349
rhand -27.2931 -25.2159
rfingers 7.12502
rthumb -0.703218 304.806
lclavicle -1.77912e-014 2.70347e-014
lhumerus -46.1109 15.0261 70.5975
lradius 27.6986
lwrist -3.72607
lhand -6.73776 6.8281
lfingers 7.12502
lthumb 19.123 35.908
rfemur -3.65129 -6.99489 28.8497
rtibia 41.1483
rfoot -27.6347 -0.496715
rtoes -13.2948
lfemur -48.916 33.2783 -26.3598
ltibia 50.9299
lfoot -16.4505 13.3343
ltoes 38.0763
